# xmcd
#
# Track frame offsets:
#	150
#	8615
#	19466
#	35261
#	43991
#	62454
#	67764
#	80516
#	91398
#	106183
#	114257
#	123150
#	129839
#	144612
#	156194
#	161672
#	170778
#	182586
#	193174
#	202520
#	208634
#	216704
#	223452
#	230442
#
# Disc length: 3334 seconds
#
# Revision: 1
# Processed by: cddbd v1.5.1PL0 Copyright (c) Steve Scherf et al.
# Submitted via: audiograbber 1.83.01
#
DISCID=520d0418
DTITLE=Юрий Визбор - Так вот мое начало
DYEAR=1999
DGENRE=Acoustic
TTITLE0=Так вот мое начало
TTITLE1=Маркшейдер мне сказал
TTITLE2=Я бы новую жизнь
TTITLE3=Турбины "Ту"
TTITLE4=Песенка о Земле Франца-Иосифа
TTITLE5=Командировка
TTITLE6=Великое искусство киносъемки
TTITLE7=Над киностудией свирепствует зима
TTITLE8=Осколок луны
TTITLE9=Ночной полет
TTITLE10=Работа
TTITLE11=Нам бы выпить перед стартом
TTITLE12=Прикосновение к земле
TTITLE13=Река Неглинка
TTITLE14=Песня о поэтах
TTITLE15=Саянская ГЭС
TTITLE16=В кабинете Гагарина тихо
TTITLE17=Улетаем
TTITLE18=Мадагаскар
TTITLE19=Знаком ли ты с Землей?
TTITLE20=Заканчивай, приятель, ночевать
TTITLE21=Абакан-Тайшет
TTITLE22=Зимний лагерь "Алибек"
TTITLE23=Памяти ушедших
EXTD=
EXTT0=
EXTT1=
EXTT2=
EXTT3=
EXTT4=
EXTT5=
EXTT6=
EXTT7=
EXTT8=
EXTT9=
EXTT10=
EXTT11=
EXTT12=
EXTT13=
EXTT14=
EXTT15=
EXTT16=
EXTT17=
EXTT18=
EXTT19=
EXTT20=
EXTT21=
EXTT22=
EXTT23=
PLAYORDER=
